#N canvas 655 274 731 393 10;
#X obj 113 69 r pitch;
#X obj 165 69 r env_fol;
#X obj 229 69 r attack;
#X obj 53 230 outlet pitch;
#X obj 133 230 outlet enveloppe;
#X obj 237 230 outlet attack;
#X text 102 154 pitch;
#X text 142 117 send audio;
#X text 146 154 enveloppe;
#X text 210 154 attack;
#X floatatom 104 136 5 0 0 0 - - -, f 5;
#X floatatom 160 136 5 0 0 0 - - -, f 5;
#X obj 222 136 bng 15 250 50 0 empty empty empty 17 7 0 10 -262144
-1 -1;
#X connect 0 0 10 0;
#X connect 1 0 11 0;
#X connect 2 0 12 0;
#X connect 10 0 3 0;
#X connect 11 0 4 0;
#X connect 12 0 5 0;
#X coords 0 -1 1 1 150 70 1 100 100;
