#N canvas 163 218 599 487 10;
#X obj 234 257 gemwin;
#X msg 338 79 0.5;
#X obj 234 99 t l b;
#X msg 234 197 color \$1 \$2 \$3;
#X text 101 111 Change back-;
#X text 101 126 ground color;
#X obj 234 80 inlet color;
#X connect 2 0 3 0;
#X connect 3 0 0 0;
#X connect 6 0 2 0;
#X coords 0 -1 1 1 85 50 2 100 100;
