#N canvas 1 101 599 487 10;
#X obj 234 257 gemwin;
#X obj 217 14 inlet R;
#X obj 265 14 inlet G;
#X obj 313 14 inlet B;
#X msg 338 79 0.5;
#X obj 234 77 pack f f f;
#X obj 234 99 t l b;
#X msg 234 197 color \$1 \$2 \$3;
#X text 100 101 R;
#X text 138 101 G;
#X text 175 101 B;
#X text 100 123 Change back-;
#X text 101 136 ground color;
#X connect 1 0 5 0;
#X connect 2 0 5 1;
#X connect 3 0 5 2;
#X connect 5 0 6 0;
#X connect 6 0 7 0;
#X connect 7 0 0 0;
#X coords 0 -1 1 1 85 60 2 100 100;
