#N canvas 417 223 450 300 10;
#X obj 109 50 loadbang;
#X obj 109 71 tgl 15 0 empty empty empty 17 7 0 10 -262144 -1 -1 1
1;
#X obj 109 92 metro 1;
#X obj 163 50 r~ loop;
#X obj 163 71 zerox~;
#X obj 163 92 /~ 64;
#X obj 163 123 lop~ 10;
#X obj 163 144 snapshot~;
#X obj 166 167 hsl 128 15 0 1 0 0 empty empty empty -2 -8 0 10 -262144
-1 -1 0 1;
#X floatatom 163 187 5 0 0 0 - - -, f 5;
#X connect 0 0 1 0;
#X connect 1 0 2 0;
#X connect 2 0 8 0;
#X connect 3 0 4 0;
#X connect 4 0 5 0;
#X connect 5 0 6 0;
#X connect 6 0 7 0;
#X connect 7 0 8 0;
#X connect 8 0 9 0;
