#N canvas 236 52 790 637 10;
#X obj 197 217 vsl 15 128 0 1 0 0 empty empty empty 0 -9 0 10 -203904
-1 -1 603 1;
#X obj 118 216 vsl 15 128 0 1 0 0 empty empty empty 0 -9 0 10 -261234
-1 -1 2527 1;
#X obj 157 216 vsl 15 128 0 1 0 0 empty empty empty 0 -9 0 10 -204786
-1 -1 516 1;
#X floatatom 118 351 5 0 0 0 - - -, f 5;
#X floatatom 157 351 5 0 0 0 - - -, f 5;
#X floatatom 197 351 5 0 0 0 - - -, f 5;
#X obj 118 370 s R;
#X obj 157 370 s G;
#X obj 197 370 s B;
#X obj 325 54 bng 15 250 50 0 empty empty empty 17 7 0 10 -262144 -1
-1;
#X obj 325 33 r attack;
#X text 385 32 Receive Transient;
#X text 122 395 Send color value;
#X text 472 119 Apply randomness for the colors;
#X obj 108 196 hsl 128 15 0 1 0 0 empty empty empty -2 -8 0 10 -203904
-1 -1 0 1;
#X obj 108 178 hsl 128 15 0 127 0 0 empty empty empty -2 -8 0 10 -204786
-1 -1 0 1;
#X obj 108 160 hsl 128 15 0 1 0 0 empty empty empty -2 -8 0 10 -261234
-1 -1 6000 1;
#X text 119 160 red amount;
#X text 134 177 green amount;
#X text 159 196 blue amount;
#N canvas 1066 124 854 431 \$1-coloramount_red 0;
#X floatatom 166 118 5 0 0 0 - - -, f 5;
#X floatatom 166 158 5 0 0 0 - - -, f 5;
#X floatatom 367 118 5 0 0 0 - - -, f 5;
#X floatatom 316 167 5 0 0 0 - - -, f 5;
#X floatatom 481 167 5 0 0 0 - - -, f 5;
#X obj 316 187 expr if($f2 > 0.333 \, $f1 \, 0);
#X obj 316 300 spigot;
#X floatatom 316 319 5 0 0 0 - - -, f 5;
#X obj 316 227 t f f;
#X floatatom 353 283 5 0 0 0 - - -, f 5;
#X obj 353 265 != 0;
#X floatatom 353 248 5 0 0 0 - - -, f 5;
#X floatatom 316 248 5 0 0 0 - - -, f 5;
#X floatatom 525 258 5 0 0 0 - - -, f 5;
#X obj 316 209 expr if($f2 > 0.666 \, 0 \, $f1);
#X obj 219 47 inlet random;
#X obj 501 49 inlet amount;
#X text 219 -27 Patch for trying to control the amount of red \, green
or blue within the randomness;
#X floatatom 725 218 5 0 0 0 - - -, f 5;
#X obj 166 137 expr if($f2 < 0.333 \, $f1 * 0.1 \, 0);
#X obj 525 237 expr if($f2 < 0.666 \, 0 \, $f1 * 1.2);
#X obj 365 389 s r_r;
#X obj 302 367 moses 1e-06;
#X text 374 362 Little tweek for bypassing the 0s expr is sending \,
probably a better way to do this;
#X connect 0 0 19 0;
#X connect 1 0 22 0;
#X connect 2 0 19 1;
#X connect 3 0 5 0;
#X connect 4 0 5 1;
#X connect 4 0 14 1;
#X connect 5 0 14 0;
#X connect 6 0 7 0;
#X connect 7 0 22 0;
#X connect 8 0 12 0;
#X connect 8 1 11 0;
#X connect 9 0 6 1;
#X connect 10 0 9 0;
#X connect 11 0 10 0;
#X connect 12 0 6 0;
#X connect 13 0 22 0;
#X connect 14 0 8 0;
#X connect 15 0 0 0;
#X connect 15 0 3 0;
#X connect 15 0 20 0;
#X connect 16 0 18 0;
#X connect 16 0 4 0;
#X connect 16 0 2 0;
#X connect 18 0 20 1;
#X connect 19 0 1 0;
#X connect 20 0 13 0;
#X connect 22 1 21 0;
#X coords 0 431 1 430 85 60 0;
#X restore 325 171 pd \$1-coloramount_red;
#N canvas 221 124 854 431 \$1-coloramount_green 0;
#X floatatom 166 118 5 0 0 0 - - -, f 5;
#X floatatom 166 157 5 0 0 0 - - -, f 5;
#X floatatom 331 118 5 0 0 0 - - -, f 5;
#X obj 166 137 expr if($f2 < 0.333 \, $f1 * 0.1 \, 0);
#X floatatom 316 167 5 0 0 0 - - -, f 5;
#X floatatom 481 167 5 0 0 0 - - -, f 5;
#X obj 316 187 expr if($f2 > 0.333 \, $f1 \, 0);
#X obj 316 300 spigot;
#X floatatom 316 319 5 0 0 0 - - -, f 5;
#X obj 316 227 t f f;
#X floatatom 353 283 5 0 0 0 - - -, f 5;
#X obj 353 265 != 0;
#X floatatom 353 248 5 0 0 0 - - -, f 5;
#X floatatom 316 248 5 0 0 0 - - -, f 5;
#X floatatom 525 258 5 0 0 0 - - -, f 5;
#X obj 316 209 expr if($f2 > 0.666 \, 0 \, $f1);
#X obj 525 237 expr if($f2 < 0.666 \, 0 \, $f1 * 1.2);
#X obj 219 47 inlet random;
#X obj 501 49 inlet amount;
#X text 219 -27 Patch for trying to control the amount of red \, green
or blue within the randomness;
#X floatatom 725 218 5 0 0 0 - - -, f 5;
#X obj 302 367 moses 1e-06;
#X text 374 362 Little tweek for bypassing the 0s expr is sending \,
probably a better way to do this;
#X obj 365 389 s g_r;
#X connect 0 0 3 0;
#X connect 1 0 21 0;
#X connect 2 0 3 1;
#X connect 3 0 1 0;
#X connect 4 0 6 0;
#X connect 5 0 6 1;
#X connect 5 0 15 1;
#X connect 6 0 15 0;
#X connect 7 0 8 0;
#X connect 8 0 21 0;
#X connect 9 0 13 0;
#X connect 9 1 12 0;
#X connect 10 0 7 1;
#X connect 11 0 10 0;
#X connect 12 0 11 0;
#X connect 13 0 7 0;
#X connect 14 0 21 0;
#X connect 15 0 9 0;
#X connect 16 0 14 0;
#X connect 17 0 0 0;
#X connect 17 0 4 0;
#X connect 17 0 16 0;
#X connect 18 0 20 0;
#X connect 18 0 5 0;
#X connect 18 0 2 0;
#X connect 20 0 16 1;
#X connect 21 1 23 0;
#X restore 335 192 pd \$1-coloramount_green;
#N canvas 221 124 854 431 \$1-coloramount_blue 0;
#X floatatom 166 118 5 0 0 0 - - -, f 5;
#X floatatom 166 157 5 0 0 0 - - -, f 5;
#X floatatom 331 118 5 0 0 0 - - -, f 5;
#X obj 166 137 expr if($f2 < 0.333 \, $f1 * 0.1 \, 0);
#X floatatom 316 167 5 0 0 0 - - -, f 5;
#X floatatom 481 167 5 0 0 0 - - -, f 5;
#X obj 316 187 expr if($f2 > 0.333 \, $f1 \, 0);
#X obj 316 300 spigot;
#X floatatom 317 320 5 0 0 0 - - -, f 5;
#X obj 316 227 t f f;
#X floatatom 353 283 5 0 0 0 - - -, f 5;
#X obj 353 265 != 0;
#X floatatom 353 248 5 0 0 0 - - -, f 5;
#X floatatom 316 248 5 0 0 0 - - -, f 5;
#X floatatom 525 258 5 0 0 0 - - -, f 5;
#X obj 316 209 expr if($f2 > 0.666 \, 0 \, $f1);
#X obj 525 237 expr if($f2 < 0.666 \, 0 \, $f1 * 1.2);
#X obj 219 47 inlet random;
#X obj 501 49 inlet amount;
#X text 219 -27 Patch for trying to control the amount of red \, green
or blue within the randomness;
#X floatatom 725 218 5 0 0 0 - - -, f 5;
#X obj 302 367 moses 1e-06;
#X text 374 362 Little tweek for bypassing the 0s expr is sending \,
probably a better way to do this;
#X obj 365 389 s b_r;
#X connect 0 0 3 0;
#X connect 1 0 21 0;
#X connect 2 0 3 1;
#X connect 3 0 1 0;
#X connect 4 0 6 0;
#X connect 5 0 6 1;
#X connect 5 0 15 1;
#X connect 6 0 15 0;
#X connect 7 0 8 0;
#X connect 8 0 21 0;
#X connect 9 0 13 0;
#X connect 9 1 12 0;
#X connect 10 0 7 1;
#X connect 11 0 10 0;
#X connect 12 0 11 0;
#X connect 13 0 7 0;
#X connect 14 0 21 0;
#X connect 15 0 9 0;
#X connect 16 0 14 0;
#X connect 17 0 0 0;
#X connect 17 0 4 0;
#X connect 17 0 16 0;
#X connect 18 0 20 0;
#X connect 18 0 5 0;
#X connect 18 0 2 0;
#X connect 20 0 16 1;
#X connect 21 1 23 0;
#X restore 345 211 pd \$1-coloramount_blue;
#X obj 157 195 r g_r;
#X obj 197 195 r b_r;
#N canvas 781 49 450 300 random 0;
#X obj 6 157 * 0.001;
#X obj 6 45 random 1000;
#X obj 6 138 spigot;
#X obj 6 25 inlet data;
#X text 56 151 applied to fit the 100% RGB amount for colors instead
of the 256 values possible.;
#X obj 100 36 inlet on_off;
#X obj 7 178 outlet;
#X connect 0 0 6 0;
#X connect 1 0 2 0;
#X connect 2 0 0 0;
#X connect 3 0 1 0;
#X connect 5 0 2 1;
#X restore 407 120 pd random;
#N canvas 781 49 450 300 random 0;
#X obj 6 157 * 0.001;
#X obj 6 45 random 1000;
#X obj 6 138 spigot;
#X obj 6 25 inlet data;
#X text 56 151 applied to fit the 100% RGB amount for colors instead
of the 256 values possible.;
#X obj 100 36 inlet on_off;
#X obj 7 178 outlet;
#X connect 0 0 6 0;
#X connect 1 0 2 0;
#X connect 2 0 0 0;
#X connect 3 0 1 0;
#X connect 5 0 2 1;
#X restore 416 138 pd random;
#N canvas 781 49 450 300 random 0;
#X obj 6 157 * 0.001;
#X obj 6 45 random 1000;
#X obj 6 138 spigot;
#X obj 6 25 inlet data;
#X text 56 151 applied to fit the 100% RGB amount for colors instead
of the 256 values possible.;
#X obj 61 85 inlet on_off;
#X floatatom 6 178 5 0 0 0 - - -, f 5;
#X obj 6 198 outlet;
#X connect 0 0 6 0;
#X connect 1 0 2 0;
#X connect 2 0 0 0;
#X connect 3 0 1 0;
#X connect 5 0 2 1;
#X connect 6 0 7 0;
#X restore 399 102 pd random;
#X msg 482 64 1;
#X msg 515 64 0;
#X text 484 48 On;
#X text 515 47 Off;
#X obj 538 22 loadbang;
#X obj 118 195 r r_r;
#X obj 193 142 s onoff;
#X obj 155 129 tgl 25 0 empty empty empty 17 7 0 10 -4032 -1 -1 0 1
;
#X text 130 133 on;
#X text 184 132 off;
#X obj 518 92 r onoff;
#X connect 0 0 5 0;
#X connect 1 0 3 0;
#X connect 2 0 4 0;
#X connect 3 0 6 0;
#X connect 4 0 7 0;
#X connect 5 0 8 0;
#X connect 9 0 27 0;
#X connect 9 0 25 0;
#X connect 9 0 26 0;
#X connect 10 0 9 0;
#X connect 14 0 22 1;
#X connect 15 0 21 1;
#X connect 16 0 20 1;
#X connect 23 0 2 0;
#X connect 24 0 0 0;
#X connect 25 0 21 0;
#X connect 26 0 22 0;
#X connect 27 0 20 0;
#X connect 28 0 27 1;
#X connect 28 0 25 1;
#X connect 28 0 26 1;
#X connect 29 0 25 1;
#X connect 29 0 26 1;
#X connect 29 0 27 1;
#X connect 32 0 29 0;
#X connect 33 0 1 0;
#X connect 35 0 34 0;
#X connect 38 0 27 1;
#X connect 38 0 25 1;
#X connect 38 0 26 1;
#X coords 0 -1 1 1 143 315 1 100 100;
