#N canvas 120 42 850 637 10;
#X obj 158 235 vsl 15 128 0 1 0 0 empty empty empty 0 -9 0 10 -203904
-1 -1 5334 1;
#X obj 113 235 vsl 15 128 0 1 0 0 empty empty empty 0 -9 0 10 -261234
-1 -1 851 1;
#X obj 136 235 vsl 15 128 0 1 0 0 empty empty empty 0 -9 0 10 -204786
-1 -1 4831 1;
#X obj 365 180 bng 15 250 50 0 empty empty empty 17 7 0 10 -262144
-1 -1;
#X text 512 245 Apply randomness for the colors;
#X obj 108 215 hsl 70 15 0 1 0 0 empty empty empty -2 -8 0 10 -203904
-1 -1 6900 1;
#X obj 108 197 hsl 70 15 0 127 0 0 empty empty empty -2 -8 0 10 -204786
-1 -1 6900 1;
#X obj 108 179 hsl 70 15 0 1 0 0 empty empty empty -2 -8 0 10 -261234
-1 -1 0 1;
#X text 112 178 red amount;
#X text 105 196 green amount;
#X text 106 215 blue amount;
#X obj 29 164 r g_r;
#X obj 31 181 r b_r;
#N canvas 781 49 450 300 random 0;
#X obj 6 157 * 0.001;
#X obj 6 45 random 1000;
#X obj 6 138 spigot;
#X obj 6 25 inlet data;
#X text 56 151 applied to fit the 100% RGB amount for colors instead
of the 256 values possible.;
#X obj 100 36 inlet on_off;
#X obj 7 178 outlet;
#X connect 0 0 6 0;
#X connect 1 0 2 0;
#X connect 2 0 0 0;
#X connect 3 0 1 0;
#X connect 5 0 2 1;
#X restore 447 246 pd random;
#N canvas 781 49 450 300 random 0;
#X obj 6 157 * 0.001;
#X obj 6 45 random 1000;
#X obj 6 138 spigot;
#X obj 6 25 inlet data;
#X text 56 151 applied to fit the 100% RGB amount for colors instead
of the 256 values possible.;
#X obj 100 36 inlet on_off;
#X obj 7 178 outlet;
#X connect 0 0 6 0;
#X connect 1 0 2 0;
#X connect 2 0 0 0;
#X connect 3 0 1 0;
#X connect 5 0 2 1;
#X restore 456 264 pd random;
#N canvas 781 49 450 300 random 0;
#X obj 6 157 * 0.001;
#X obj 6 45 random 1000;
#X obj 6 138 spigot;
#X obj 6 25 inlet data;
#X text 56 151 applied to fit the 100% RGB amount for colors instead
of the 256 values possible.;
#X obj 61 85 inlet on_off;
#X floatatom 6 178 5 0 0 0 - - -, f 5;
#X obj 6 198 outlet;
#X connect 0 0 6 0;
#X connect 1 0 2 0;
#X connect 2 0 0 0;
#X connect 3 0 1 0;
#X connect 5 0 2 1;
#X connect 6 0 7 0;
#X restore 439 228 pd random;
#X msg 555 190 0;
#X text 555 173 Off;
#X obj 578 148 loadbang;
#X obj 29 145 r r_r;
#X obj 323 263 s onoff;
#X obj 131 146 tgl 25 0 empty empty empty 17 7 0 10 -4032 -1 -1 1 1
;
#X text 103 143 on, f 3;
#X text 103 156 off;
#X obj 558 218 r onoff;
#X obj 77 496 outlet R;
#X obj 133 496 outlet G;
#X obj 188 496 outlet B;
#X text 114 390 R;
#X text 138 391 G;
#X text 159 391 B;
#X text 109 366 Send colors;
#X text 124 378 values;
#X obj 309 153 inlet attack;
#X text 388 153 receive attack;
#X text 100 117 color;
#X text 100 130 randomness;
#X text 177 101 e;
#X text 100 100 a;
#X text 139 101 p;
#X obj 667 149 inlet pitch;
#X text 740 147 receive pitch;
#X obj 418 424 inlet enveloppe;
#X text 513 424 receive enveloppe;
#X text 483 34 Apply color randomness;
#N canvas 1066 124 854 431 \$0-coloramount_red 0;
#X floatatom 166 118 5 0 0 0 - - -, f 5;
#X floatatom 166 158 5 0 0 0 - - -, f 5;
#X floatatom 367 118 5 0 0 0 - - -, f 5;
#X floatatom 316 167 5 0 0 0 - - -, f 5;
#X floatatom 481 167 5 0 0 0 - - -, f 5;
#X obj 316 187 expr if($f2 > 0.333 \, $f1 \, 0);
#X obj 316 300 spigot;
#X floatatom 316 319 5 0 0 0 - - -, f 5;
#X obj 316 227 t f f;
#X floatatom 353 283 5 0 0 0 - - -, f 5;
#X obj 353 265 != 0;
#X floatatom 353 248 5 0 0 0 - - -, f 5;
#X floatatom 316 248 5 0 0 0 - - -, f 5;
#X floatatom 525 258 5 0 0 0 - - -, f 5;
#X obj 316 209 expr if($f2 > 0.666 \, 0 \, $f1);
#X obj 219 47 inlet random;
#X obj 501 49 inlet amount;
#X text 219 -27 Patch for trying to control the amount of red \, green
or blue within the randomness;
#X floatatom 725 218 5 0 0 0 - - -, f 5;
#X obj 166 137 expr if($f2 < 0.333 \, $f1 * 0.1 \, 0);
#X obj 525 237 expr if($f2 < 0.666 \, 0 \, $f1 * 1.2);
#X obj 365 389 s r_r;
#X obj 302 367 moses 1e-06;
#X text 374 362 Little tweek for bypassing the 0s expr is sending \,
probably a better way to do this;
#X connect 0 0 19 0;
#X connect 1 0 22 0;
#X connect 2 0 19 1;
#X connect 3 0 5 0;
#X connect 4 0 5 1;
#X connect 4 0 14 1;
#X connect 5 0 14 0;
#X connect 6 0 7 0;
#X connect 7 0 22 0;
#X connect 8 0 12 0;
#X connect 8 1 11 0;
#X connect 9 0 6 1;
#X connect 10 0 9 0;
#X connect 11 0 10 0;
#X connect 12 0 6 0;
#X connect 13 0 22 0;
#X connect 14 0 8 0;
#X connect 15 0 0 0;
#X connect 15 0 3 0;
#X connect 15 0 20 0;
#X connect 16 0 18 0;
#X connect 16 0 4 0;
#X connect 16 0 2 0;
#X connect 18 0 20 1;
#X connect 19 0 1 0;
#X connect 20 0 13 0;
#X connect 22 1 21 0;
#X coords 0 431 1 430 85 60 0;
#X restore 365 297 pd \$0-coloramount_red;
#N canvas 221 124 854 431 \$0-coloramount_green 0;
#X floatatom 166 118 5 0 0 0 - - -, f 5;
#X floatatom 166 157 5 0 0 0 - - -, f 5;
#X floatatom 331 118 5 0 0 0 - - -, f 5;
#X obj 166 137 expr if($f2 < 0.333 \, $f1 * 0.1 \, 0);
#X floatatom 316 167 5 0 0 0 - - -, f 5;
#X floatatom 481 167 5 0 0 0 - - -, f 5;
#X obj 316 187 expr if($f2 > 0.333 \, $f1 \, 0);
#X obj 316 300 spigot;
#X floatatom 316 319 5 0 0 0 - - -, f 5;
#X obj 316 227 t f f;
#X floatatom 353 283 5 0 0 0 - - -, f 5;
#X obj 353 265 != 0;
#X floatatom 353 248 5 0 0 0 - - -, f 5;
#X floatatom 316 248 5 0 0 0 - - -, f 5;
#X floatatom 525 258 5 0 0 0 - - -, f 5;
#X obj 316 209 expr if($f2 > 0.666 \, 0 \, $f1);
#X obj 525 237 expr if($f2 < 0.666 \, 0 \, $f1 * 1.2);
#X obj 219 47 inlet random;
#X obj 501 49 inlet amount;
#X text 219 -27 Patch for trying to control the amount of red \, green
or blue within the randomness;
#X floatatom 725 218 5 0 0 0 - - -, f 5;
#X obj 302 367 moses 1e-06;
#X text 374 362 Little tweek for bypassing the 0s expr is sending \,
probably a better way to do this;
#X obj 365 389 s g_r;
#X connect 0 0 3 0;
#X connect 1 0 21 0;
#X connect 2 0 3 1;
#X connect 3 0 1 0;
#X connect 4 0 6 0;
#X connect 5 0 6 1;
#X connect 5 0 15 1;
#X connect 6 0 15 0;
#X connect 7 0 8 0;
#X connect 8 0 21 0;
#X connect 9 0 13 0;
#X connect 9 1 12 0;
#X connect 10 0 7 1;
#X connect 11 0 10 0;
#X connect 12 0 11 0;
#X connect 13 0 7 0;
#X connect 14 0 21 0;
#X connect 15 0 9 0;
#X connect 16 0 14 0;
#X connect 17 0 0 0;
#X connect 17 0 4 0;
#X connect 17 0 16 0;
#X connect 18 0 20 0;
#X connect 18 0 5 0;
#X connect 18 0 2 0;
#X connect 20 0 16 1;
#X connect 21 1 23 0;
#X restore 375 318 pd \$0-coloramount_green;
#N canvas 221 124 854 431 \$0-coloramount_blue 0;
#X floatatom 166 118 5 0 0 0 - - -, f 5;
#X floatatom 166 157 5 0 0 0 - - -, f 5;
#X floatatom 331 118 5 0 0 0 - - -, f 5;
#X obj 166 137 expr if($f2 < 0.333 \, $f1 * 0.1 \, 0);
#X floatatom 316 167 5 0 0 0 - - -, f 5;
#X floatatom 481 167 5 0 0 0 - - -, f 5;
#X obj 316 187 expr if($f2 > 0.333 \, $f1 \, 0);
#X obj 316 300 spigot;
#X floatatom 317 320 5 0 0 0 - - -, f 5;
#X obj 316 227 t f f;
#X floatatom 353 283 5 0 0 0 - - -, f 5;
#X obj 353 265 != 0;
#X floatatom 353 248 5 0 0 0 - - -, f 5;
#X floatatom 316 248 5 0 0 0 - - -, f 5;
#X floatatom 525 258 5 0 0 0 - - -, f 5;
#X obj 316 209 expr if($f2 > 0.666 \, 0 \, $f1);
#X obj 525 237 expr if($f2 < 0.666 \, 0 \, $f1 * 1.2);
#X obj 219 47 inlet random;
#X obj 501 49 inlet amount;
#X text 219 -27 Patch for trying to control the amount of red \, green
or blue within the randomness;
#X floatatom 725 218 5 0 0 0 - - -, f 5;
#X obj 302 367 moses 1e-06;
#X text 374 362 Little tweek for bypassing the 0s expr is sending \,
probably a better way to do this;
#X obj 365 389 s b_r;
#X connect 0 0 3 0;
#X connect 1 0 21 0;
#X connect 2 0 3 1;
#X connect 3 0 1 0;
#X connect 4 0 6 0;
#X connect 5 0 6 1;
#X connect 5 0 15 1;
#X connect 6 0 15 0;
#X connect 7 0 8 0;
#X connect 8 0 21 0;
#X connect 9 0 13 0;
#X connect 9 1 12 0;
#X connect 10 0 7 1;
#X connect 11 0 10 0;
#X connect 12 0 11 0;
#X connect 13 0 7 0;
#X connect 14 0 21 0;
#X connect 15 0 9 0;
#X connect 16 0 14 0;
#X connect 17 0 0 0;
#X connect 17 0 4 0;
#X connect 17 0 16 0;
#X connect 18 0 20 0;
#X connect 18 0 5 0;
#X connect 18 0 2 0;
#X connect 20 0 16 1;
#X connect 21 1 23 0;
#X restore 385 337 pd \$0-coloramount_blue;
#X obj 108 417 pack f f f;
#X connect 0 0 48 2;
#X connect 0 0 27 0;
#X connect 1 0 48 0;
#X connect 1 0 25 0;
#X connect 2 0 48 1;
#X connect 2 0 26 0;
#X connect 3 0 15 0;
#X connect 3 0 13 0;
#X connect 3 0 14 0;
#X connect 5 0 47 1;
#X connect 6 0 46 1;
#X connect 7 0 45 1;
#X connect 11 0 2 0;
#X connect 12 0 0 0;
#X connect 13 0 46 0;
#X connect 14 0 47 0;
#X connect 15 0 45 0;
#X connect 16 0 13 1;
#X connect 16 0 14 1;
#X connect 16 0 15 1;
#X connect 18 0 16 0;
#X connect 19 0 1 0;
#X connect 21 0 20 0;
#X connect 24 0 15 1;
#X connect 24 0 13 1;
#X connect 24 0 14 1;
#X connect 33 0 3 0;
#X coords 0 -1 1 1 90 305 2 100 100;
