#N canvas 198 53 1540 939 10;
#X obj 351 786 Loop_player;
#X obj 548 835 line~;
#X msg 548 815 \$1 20;
#X obj 552 775 hsl 128 15 0 1 0 0 empty empty empty -2 -8 0 10 -262144
-1 -1 5500 1;
#X floatatom 548 798 5 0 0 0 - - -, f 5;
#X obj 390 866 *~;
#X obj 432 865 *~;
#X obj 399 892 dac~;
#X obj 7 387 Live_input;
#X obj 7 10 GEM_win;
#X obj 589 12 audio_detection;
#N canvas 969 442 435 532 open-patches_donotdelete 0;
#N canvas 486 1162 411 478 open-square_mania 0;
#X msg 40 241 square_mania;
#X msg 41 102 bang;
#X obj 127 185 delay 250;
#X msg 127 295 \; pd-modules vis 0;
#X obj 127 207 t b b;
#X msg 154 255 \; pd-Main.pd editmode 1;
#X obj 40 311 pack s;
#X obj 41 35 r \$0-create-square_mania;
#X obj 41 169 t b b;
#X msg 40 340 \; pd-Main.pd obj 200 300 \$1;
#X connect 0 0 6 0;
#X connect 1 0 8 0;
#X connect 2 0 4 0;
#X connect 4 0 3 0;
#X connect 4 1 5 0;
#X connect 6 0 9 0;
#X connect 7 0 1 0;
#X connect 8 0 0 0;
#X connect 8 1 2 0;
#X restore 20 28 pd open-square_mania;
#N canvas 768 1153 411 478 open-color_randomness 0;
#X msg 41 102 bang;
#X obj 151 185 delay 250;
#X msg 151 295 \; pd-modules vis 0;
#X obj 151 207 t b b;
#X msg 178 255 \; pd-Main.pd editmode 1;
#X obj 40 311 pack s;
#X obj 41 169 t b b;
#X obj 41 35 r \$0-create-color_randomness;
#X msg 40 241 color_randomness;
#X msg 40 340 \; pd-Main.pd obj 450 300 \$1;
#X connect 0 0 6 0;
#X connect 1 0 3 0;
#X connect 3 0 2 0;
#X connect 3 1 4 0;
#X connect 5 0 9 0;
#X connect 6 0 8 0;
#X connect 6 1 1 0;
#X connect 7 0 0 0;
#X connect 8 0 5 0;
#X restore 20 47 pd open-color_randomness;
#N canvas 803 1190 411 478 open-simple_color 0;
#X msg 41 102 bang;
#X obj 151 185 delay 250;
#X msg 151 295 \; pd-modules vis 0;
#X obj 151 207 t b b;
#X msg 178 255 \; pd-Main.pd editmode 1;
#X obj 40 311 pack s;
#X obj 41 169 t b b;
#X obj 41 35 r \$0-create-simple_color;
#X msg 40 241 simple_color;
#X msg 40 340 \; pd-Main.pd obj 425 25 \$1;
#X connect 0 0 6 0;
#X connect 1 0 3 0;
#X connect 3 0 2 0;
#X connect 3 1 4 0;
#X connect 5 0 9 0;
#X connect 6 0 8 0;
#X connect 6 1 1 0;
#X connect 7 0 0 0;
#X connect 8 0 5 0;
#X restore 20 66 pd open-simple_color;
#N canvas 803 1190 411 478 open-feedbacker 0;
#X msg 41 102 bang;
#X obj 151 185 delay 250;
#X msg 151 295 \; pd-modules vis 0;
#X obj 151 207 t b b;
#X msg 178 255 \; pd-Main.pd editmode 1;
#X obj 40 311 pack s;
#X obj 41 169 t b b;
#X obj 41 35 r \$0-create-feedbacker;
#X msg 40 241 feedbacker;
#X msg 40 340 \; pd-Main.pd obj 600 300 \$1;
#X connect 0 0 6 0;
#X connect 1 0 3 0;
#X connect 3 0 2 0;
#X connect 3 1 4 0;
#X connect 5 0 9 0;
#X connect 6 0 8 0;
#X connect 6 1 1 0;
#X connect 7 0 0 0;
#X connect 8 0 5 0;
#X restore 20 85 pd open-feedbacker;
#N canvas 803 1190 411 478 open-background_color 0;
#X msg 41 102 bang;
#X obj 151 185 delay 250;
#X msg 151 295 \; pd-modules vis 0;
#X obj 151 207 t b b;
#X msg 178 255 \; pd-Main.pd editmode 1;
#X obj 40 311 pack s;
#X obj 41 169 t b b;
#X obj 41 35 r \$0-create-background_color;
#X msg 40 241 background_color;
#X msg 40 340 \; pd-Main.pd obj 600 600 \$1;
#X connect 0 0 6 0;
#X connect 1 0 3 0;
#X connect 3 0 2 0;
#X connect 3 1 4 0;
#X connect 5 0 9 0;
#X connect 6 0 8 0;
#X connect 6 1 1 0;
#X connect 7 0 0 0;
#X connect 8 0 5 0;
#X restore 20 103 pd open-background_color;
#N canvas 802 1238 411 478 open-tutorial 0;
#X msg 41 102 bang;
#X obj 151 185 delay 250;
#X msg 151 295 \; pd-modules vis 0;
#X obj 151 207 t b b;
#X obj 40 311 pack s;
#X obj 41 169 t b b;
#X obj 41 35 r \$0-create-tutorial;
#X msg 40 241 tutorial_click_here_please;
#X msg 40 340 \; pd-Main.pd obj 212 450 \$1;
#X connect 0 0 5 0;
#X connect 1 0 3 0;
#X connect 3 0 2 0;
#X connect 4 0 8 0;
#X connect 5 0 7 0;
#X connect 5 1 1 0;
#X connect 6 0 0 0;
#X connect 7 0 4 0;
#X restore 246 53 pd open-tutorial;
#X restore 9 907 pd open-patches_donotdelete;
#N canvas 461 280 562 420 modules 0;
#X obj 17 43 bng 15 250 50 0 \$0-create-simple_color empty --|_Create-Simple_Color
17 7 0 10 -203904 -1 -1;
#N canvas 737 446 450 300 visual 0;
#X text 101 102 Colors;
#X coords 0 -1 1 1 200 20 2 100 100;
#X restore 8 16 pd visual;
#N canvas 897 431 450 300 visuals-2 0;
#X text 102 102 Forms;
#X coords 0 -1 1 1 200 20 2 100 100;
#X restore 214 16 pd visuals-2;
#X obj 16 131 bng 15 250 50 0 \$0-create-feedbacker empty --|_Create_Feedbacker
17 7 0 10 -261682 -1 -1;
#X obj 17 77 bng 15 250 50 0 \$0-create-background_color empty --|_Create-Background_Color
17 7 0 10 -203904 -1 -1;
#N canvas 498 413 450 300 forms3 0;
#X text 100 102 Misc.;
#X coords 0 -1 1 1 200 20 2 100 100;
#X restore 9 106 pd forms3;
#X obj 222 41 bng 15 250 50 0 \$0-create-square_mania empty --|_Create_square_mania
17 7 0 10 -4032 -1 -1;
#X obj 17 60 bng 15 250 50 0 \$0-create-color_randomness empty --|_Create-Color_Randomness
17 7 0 10 -203904 -1 -1;
#X coords 0 -1 1 1 422 198 1 0 0;
#X restore 154 10 pd modules;
#N canvas 929 262 680 490 audio_detection-do-not-delete 0;
#X obj 112 98 Helmholtz_1;
#X obj 58 160 transients_detector;
#X obj 58 139 suivi_amp;
#X obj 57 41 noise_gate;
#X text 185 93 Pitch detection \, left outlet is the results of the
analyse with a sinewave \, right inlet is the pitch data in Hz;
#X obj 57 65 r~ no_noise;
#X text 124 42 receive the audio source and clean the signal from the
noise;
#X text 187 138 cleaned envelope follower from the audio source \,
sent into a transient detector;
#X connect 2 0 1 0;
#X connect 5 0 0 0;
#X connect 5 0 0 1;
#X restore 9 888 pd audio_detection-do-not-delete;
#X obj 9 869 GEM_FUN;
#X text 56 870 DO NOT DELETE;
#X text 583 799 Master Volume;
#X obj 701 164 simple_color;
#X obj 695 468 background_color;
#X obj 917 135 color_randomness;
#X obj 339 354 square_mania;
#X obj 527 552 feedbacker;
#X obj 817 567 square_mania;
#X obj 859 712 feedbacker;
#X obj 1112 188 square_mania;
#X connect 0 0 5 0;
#X connect 0 1 6 0;
#X connect 1 0 6 1;
#X connect 1 0 5 1;
#X connect 2 0 1 0;
#X connect 3 0 4 0;
#X connect 4 0 2 0;
#X connect 5 0 7 0;
#X connect 6 0 7 1;
#X connect 10 0 20 1;
#X connect 10 1 20 3;
#X connect 10 1 22 3;
#X connect 10 2 19 0;
#X connect 10 2 20 0;
#X connect 17 0 18 0;
#X connect 19 0 18 0;
#X connect 20 0 21 0;
#X connect 21 0 20 2;
#X connect 22 0 23 0;
#X connect 23 0 22 2;
