#N canvas 280 64 478 385 10;
#X obj 316 54 t a b;
#X obj 343 74 f;
#X obj 343 116 mod 4;
#X obj 343 95 + 1;
#X obj 318 160 spigot;
#X floatatom 343 135 5 0 0 0 - - -, f 5;
#X obj 316 33 inlet form;
#X obj 231 311 outlet feedback;
#X obj 232 286 pack f f;
#X obj 108 118 vradio 15 1 0 4 empty empty empty 0 -8 0 10 -262144
-1 -1 0;
#X text 126 132 x;
#X text 126 147 y;
#X text 126 162 z;
#X text 126 117 main;
#N canvas 718 110 450 300 direction_choice 0;
#X obj 48 42 inlet switch;
#X obj 48 63 sel 0 1 2 3;
#X connect 0 0 1 0;
#X restore 105 235 pd direction_choice;
#X floatatom 124 211 5 0 0 0 - - -, f 5;
#X connect 0 0 4 0;
#X connect 0 1 1 0;
#X connect 1 0 3 0;
#X connect 2 0 5 0;
#X connect 3 0 2 0;
#X connect 3 0 1 1;
#X connect 4 0 8 0;
#X connect 5 0 4 1;
#X connect 6 0 0 0;
#X connect 8 0 7 0;
#X connect 9 0 14 0;
#X connect 9 0 15 0;
#X connect 9 0 8 0;
#X coords 0 -1 1 1 100 100 1 100 100;
