#N canvas 1196 291 636 567 10;
#X obj 152 22 cnv 15 100 60 empty empty empty 20 12 0 14 -233017 -66577
0;
#X obj 112 110 vradio 15 1 0 4 gemwinwin empty empty 0 -8 0 10 -204800
-99865 -262144 0;
#X text 132 109 Destroy window;
#X text 138 124 Create window;
#X text 144 139 Lightning On;
#X text 144 155 Lightnin off;
#N canvas 543 642 345 405 gemwin 1;
#X obj 20 18 r gemwinwin;
#X obj 20 39 sel 0 1 2 3;
#X obj 28 177 gemwin;
#X msg 37 88 create \, 1;
#X msg 20 70 destroy \, 0;
#X msg 43 107 lightning 1;
#X msg 50 125 lightning 0;
#X connect 0 0 1 0;
#X connect 1 0 4 0;
#X connect 1 1 3 0;
#X connect 1 2 5 0;
#X connect 1 3 6 0;
#X connect 3 0 2 0;
#X connect 4 0 2 0;
#X connect 5 0 2 0;
#X connect 6 0 2 0;
#X restore 142 461 pd gemwin;
#X coords 0 -1 1 1 200 300 1 100 100;
