#N canvas 24 109 997 498 10;
#X obj 507 13 gemhead;
#X obj 506 134 world_light;
#X msg 202 83 lighting 1;
#X msg 193 55 lighting 0;
#X msg 538 108 debug 1;
#X msg 538 87 debug 0;
#X obj 507 44 translate 0.5 0.5 0.5;
#X obj 507 66 rotateXYZ;
#X msg 116 28 destroy \, 0;
#X msg 15 32 create \, 1;
#X obj 102 113 gemwin;
#X obj 344 27 inlet pitch;
#X floatatom 344 48 5 0 0 0 - - -, f 5;
#X obj 344 92 line;
#X floatatom 344 156 5 0 0 0 - - -, f 5;
#X obj 343 134 * 0.01;
#X obj 334 225 gemhead;
#X obj 334 246 rotateXYZ;
#X obj 334 340 sphere;
#X floatatom 183 208 5 0 0 0 - - -, f 5;
#X obj 120 229 gemhead;
#X floatatom 45 279 5 0 0 0 - - -, f 5;
#X obj 120 290 rotateXYZ;
#X floatatom 226 338 5 0 0 0 - - -, f 5;
#X floatatom 216 230 5 0 0 0 - - -, f 5;
#X obj 120 403 sphere;
#X floatatom 221 412 5 0 0 0 - - -, f 5;
#X msg 32 362 draw fill;
#X msg 32 322 draw point;
#X msg 32 342 draw line;
#X obj 121 335 pix_texture;
#X obj 121 313 pix_image trou.jpg;
#X obj 334 362 t a b;
#X obj 366 397 f;
#X obj 366 419 + 1;
#X obj 366 441 mod 4;
#X obj 302 399 spigot;
#X obj 334 317 translateXYZ;
#X msg 450 280 0;
#X obj 892 169 vsl 15 128 0 1 0 0 empty empty empty 0 -9 0 10 -262144
-1 -1 12700 1;
#X obj 813 168 vsl 15 128 0 1 0 0 empty empty empty 0 -9 0 10 -262144
-1 -1 11989 1;
#X obj 852 168 vsl 15 128 0 1 0 0 empty empty empty 0 -9 0 10 -262144
-1 -1 12700 1;
#X floatatom 813 303 5 0 0 0 - - -, f 5;
#X floatatom 852 303 5 0 0 0 - - -, f 5;
#X floatatom 892 303 5 0 0 0 - - -, f 5;
#X obj 334 293 colorRGB;
#X obj 813 322 s R;
#X obj 852 322 s G;
#X obj 892 322 s B;
#X obj 343 269 r R;
#X obj 371 269 r G;
#X obj 400 269 r B;
#X obj 368 115 s pitch;
#X floatatom 752 217 5 0 0 0 - - -, f 5;
#X obj 752 193 * 0.001;
#X obj 752 236 + 0.2;
#X obj 752 258 + 0.2;
#X obj 404 246 - 3;
#X obj 93 4 loadbang;
#X msg 344 67 \$1 10;
#X obj 120 360 translateXYZ;
#X obj 519 216 gemhead;
#X obj 519 237 rotateXYZ;
#X obj 519 331 sphere;
#X floatatom 676 317 5 0 0 0 - - -, f 5;
#X obj 519 353 t a b;
#X obj 551 388 f;
#X obj 551 410 + 1;
#X obj 551 432 mod 4;
#X obj 501 387 spigot;
#X obj 519 308 translateXYZ;
#X msg 635 271 0;
#X obj 519 284 colorRGB;
#X obj 528 260 r R;
#X obj 556 260 r G;
#X obj 585 260 r B;
#X obj 593 239 - 3;
#X text 42 194 Sphere avec image;
#X text 583 18 Lights;
#X text 321 210 Sphere horizontale;
#X text 501 200 Sphere verticale;
#X text 286 382 Genre de feedback;
#X obj 752 21 r attack;
#X obj 752 42 bng 15 250 50 0 empty empty empty 17 7 0 10 -262144 -1
-1;
#X obj 752 62 random 1000;
#X obj 752 155 spigot;
#X msg 766 125 1;
#X msg 799 125 0;
#X text 766 108 On;
#X text 797 108 Off;
#X text 832 61 Attaques sur couleurs;
#X connect 0 0 6 0;
#X connect 2 0 10 0;
#X connect 3 0 10 0;
#X connect 4 0 1 0;
#X connect 5 0 1 0;
#X connect 6 0 7 0;
#X connect 7 0 1 0;
#X connect 8 0 10 0;
#X connect 9 0 10 0;
#X connect 11 0 12 0;
#X connect 12 0 59 0;
#X connect 13 0 15 0;
#X connect 13 0 52 0;
#X connect 14 0 17 2;
#X connect 14 0 17 3;
#X connect 14 0 22 1;
#X connect 14 0 17 1;
#X connect 14 0 57 0;
#X connect 14 0 76 0;
#X connect 15 0 14 0;
#X connect 16 0 17 0;
#X connect 17 0 45 0;
#X connect 18 0 32 0;
#X connect 19 0 22 2;
#X connect 20 0 22 0;
#X connect 21 0 22 1;
#X connect 22 0 31 0;
#X connect 23 0 60 1;
#X connect 26 0 25 1;
#X connect 27 0 25 0;
#X connect 28 0 25 0;
#X connect 29 0 25 0;
#X connect 30 0 60 0;
#X connect 31 0 30 0;
#X connect 32 0 36 0;
#X connect 32 1 33 0;
#X connect 33 0 34 0;
#X connect 34 0 35 0;
#X connect 34 0 33 1;
#X connect 35 0 36 1;
#X connect 36 0 37 0;
#X connect 37 0 18 0;
#X connect 38 0 37 1;
#X connect 38 0 37 2;
#X connect 38 0 37 3;
#X connect 39 0 44 0;
#X connect 40 0 42 0;
#X connect 41 0 43 0;
#X connect 42 0 46 0;
#X connect 43 0 47 0;
#X connect 44 0 48 0;
#X connect 45 0 37 0;
#X connect 49 0 45 1;
#X connect 50 0 45 2;
#X connect 51 0 45 3;
#X connect 53 0 40 0;
#X connect 53 0 55 0;
#X connect 54 0 53 0;
#X connect 55 0 41 0;
#X connect 55 0 56 0;
#X connect 56 0 39 0;
#X connect 57 0 37 1;
#X connect 58 0 9 0;
#X connect 58 0 2 0;
#X connect 59 0 13 0;
#X connect 60 0 25 0;
#X connect 61 0 62 0;
#X connect 62 0 72 0;
#X connect 63 0 65 0;
#X connect 64 0 63 1;
#X connect 65 0 69 0;
#X connect 65 1 66 0;
#X connect 66 0 67 0;
#X connect 67 0 68 0;
#X connect 67 0 66 1;
#X connect 68 0 69 1;
#X connect 69 0 70 0;
#X connect 70 0 63 0;
#X connect 71 0 70 1;
#X connect 71 0 70 2;
#X connect 71 0 70 3;
#X connect 72 0 70 0;
#X connect 73 0 72 1;
#X connect 74 0 72 2;
#X connect 75 0 72 3;
#X connect 76 0 70 2;
#X connect 82 0 83 0;
#X connect 83 0 84 0;
#X connect 84 0 85 0;
#X connect 85 0 54 0;
#X connect 86 0 85 1;
#X connect 87 0 85 1;
