#N canvas 365 42 330 545 10;
#X obj 152 22 cnv 15 100 60 empty empty empty 20 12 0 14 -233017 -66577
0;
#X obj 111 396 vradio 15 1 0 3 gemfps empty empty 0 -8 0 10 -204800
-99865 -262144 0;
#X text 145 129 Destroy window;
#X text 151 144 Create window;
#X text 157 159 Lightning On;
#N canvas 522 1151 1084 618 gemwin 0;
#X obj 16 69 r gemwinwin;
#X obj 9 92 sel 0 1 2 3;
#X msg 33 139 create \, 1;
#X msg 16 121 destroy \, 0;
#X msg 39 158 lightning 1;
#X msg 46 176 lightning 0;
#X text 11 18 Gem basic win;
#X text 205 19 Gem Windows size;
#X text 638 22 Gem fps;
#X text 404 18 Gem quality;
#X obj 225 65 r gemsize;
#X obj 410 58 r gemquality;
#X obj 633 57 r gemfps;
#X obj 224 85 sel 0 1 2 3 4;
#X msg 181 213 destroy \, reset \, dimen 500 500 \, create;
#X msg 193 255 destroy \, reset \, dimen 1024 1024 \, create;
#X msg 185 233 destroy \, reset \, dimen 800 800 \, create;
#X msg 206 314 destroy \, reset \, fullscreen \$1 \, create;
#X msg 279 193 2;
#X msg 200 294 destroy \, reset \, fullscreen \$1 \, create;
#X msg 241 169 1;
#X obj 161 356 s \$0-gem_win;
#X obj 12 201 s \$0-gem_win;
#X obj 342 395 r \$0-gem_win;
#X obj 410 79 sel 0 1 2;
#X msg 410 131 destroy \, FSAA \$1 \, create \,;
#X msg 440 106 4;
#X msg 474 106 8;
#X msg 410 106 0;
#X obj 403 152 s \$0-gem_win;
#X obj 342 423 gemwin \$1;
#X obj 633 77 sel 0 1 2;
#X msg 624 106 20;
#X obj 624 159 s \$0-gem_win;
#X msg 624 130 frame \$1;
#X msg 654 106 10;
#X msg 688 106 200;
#X connect 0 0 1 0;
#X connect 1 0 3 0;
#X connect 1 1 2 0;
#X connect 1 2 4 0;
#X connect 1 3 5 0;
#X connect 2 0 22 0;
#X connect 3 0 22 0;
#X connect 4 0 22 0;
#X connect 5 0 22 0;
#X connect 10 0 13 0;
#X connect 11 0 24 0;
#X connect 12 0 31 0;
#X connect 13 0 14 0;
#X connect 13 1 16 0;
#X connect 13 2 15 0;
#X connect 13 3 20 0;
#X connect 13 4 18 0;
#X connect 14 0 21 0;
#X connect 15 0 21 0;
#X connect 16 0 21 0;
#X connect 17 0 21 0;
#X connect 18 0 17 0;
#X connect 19 0 21 0;
#X connect 20 0 19 0;
#X connect 23 0 30 0;
#X connect 24 0 28 0;
#X connect 24 1 26 0;
#X connect 24 2 27 0;
#X connect 25 0 29 0;
#X connect 26 0 25 0;
#X connect 27 0 25 0;
#X connect 28 0 25 0;
#X connect 31 0 32 0;
#X connect 31 1 35 0;
#X connect 31 2 36 0;
#X connect 32 0 34 0;
#X connect 34 0 33 0;
#X connect 35 0 34 0;
#X connect 36 0 34 0;
#X restore 142 488 pd gemwin;
#X text 157 175 Lightnin Off;
#X obj 109 130 vradio 15 1 0 4 gemwinwin empty empty 0 -8 0 10 -204800
-99865 -262144 1;
#X text 106 199 Gem Windows size;
#X text 108 379 Gem fps;
#X text 107 311 Gem quality;
#X text 199 221 Small;
#X text 193 237 Medium;
#X text 199 252 Large;
#X obj 109 221 vradio 15 1 0 5 gemsize empty empty 0 -8 0 10 -204800
-99865 -262144 2;
#X text 192 331 Normal;
#X text 216 345 x4;
#X text 216 360 x8;
#X obj 110 331 vradio 15 1 0 3 gemquality empty empty 0 -8 0 10 -204800
-99865 -262144 2;
#X text 156 395 20 (default);
#X text 106 114 Gem basic win;
#X text 127 270 Full-Screen 1 mon;
#X text 127 283 Full-Screen 2 mon;
#X text 180 410 10(fast);
#X text 138 425 200(slowmodeel);
#X coords 0 -1 1 1 140 360 1 100 100;
