#N canvas 43 64 997 498 10;
#X obj 507 13 gemhead;
#X obj 506 134 world_light;
#X msg 538 108 debug 1;
#X msg 538 87 debug 0;
#X obj 507 44 translate 0.5 0.5 0.5;
#X obj 507 66 rotateXYZ;
#X obj 344 27 inlet pitch;
#X floatatom 344 48 5 0 0 0 - - -, f 5;
#X obj 344 92 line;
#X floatatom 344 156 5 0 0 0 - - -, f 5;
#X obj 343 134 * 0.01;
#X obj 334 225 gemhead;
#X obj 334 246 rotateXYZ;
#X obj 334 340 sphere;
#X floatatom 183 208 5 0 0 0 - - -, f 5;
#X obj 120 229 gemhead;
#X floatatom 45 279 5 0 0 0 - - -, f 5;
#X obj 120 290 rotateXYZ;
#X floatatom 226 338 5 0 0 0 - - -, f 5;
#X floatatom 216 230 5 0 0 0 - - -, f 5;
#X obj 120 403 sphere;
#X floatatom 221 412 5 0 0 0 - - -, f 5;
#X msg 32 362 draw fill;
#X msg 32 322 draw point;
#X msg 32 342 draw line;
#X obj 121 335 pix_texture;
#X obj 121 313 pix_image trou.jpg;
#X obj 334 362 t a b;
#X obj 366 397 f;
#X obj 366 419 + 1;
#X obj 366 441 mod 4;
#X obj 302 399 spigot;
#X obj 334 317 translateXYZ;
#X msg 450 280 0;
#X obj 334 293 colorRGB;
#X obj 343 269 r R;
#X obj 371 269 r G;
#X obj 400 269 r B;
#X obj 368 115 s pitch;
#X obj 404 246 - 3;
#X msg 344 67 \$1 10;
#X obj 120 360 translateXYZ;
#X obj 519 216 gemhead;
#X obj 519 237 rotateXYZ;
#X obj 519 331 sphere;
#X floatatom 676 317 5 0 0 0 - - -, f 5;
#X obj 519 353 t a b;
#X obj 551 388 f;
#X obj 551 410 + 1;
#X obj 551 432 mod 4;
#X obj 501 387 spigot;
#X obj 519 308 translateXYZ;
#X msg 635 271 0;
#X obj 519 284 colorRGB;
#X obj 528 260 r R;
#X obj 556 260 r G;
#X obj 585 260 r B;
#X obj 593 239 - 3;
#X text 42 194 Sphere avec image;
#X text 583 18 Lights;
#X text 321 210 Sphere horizontale;
#X text 501 200 Sphere verticale;
#X text 286 382 Genre de feedback;
#X connect 0 0 4 0;
#X connect 2 0 1 0;
#X connect 3 0 1 0;
#X connect 4 0 5 0;
#X connect 5 0 1 0;
#X connect 6 0 7 0;
#X connect 7 0 40 0;
#X connect 8 0 10 0;
#X connect 8 0 38 0;
#X connect 9 0 12 2;
#X connect 9 0 12 3;
#X connect 9 0 17 1;
#X connect 9 0 12 1;
#X connect 9 0 39 0;
#X connect 9 0 57 0;
#X connect 10 0 9 0;
#X connect 12 0 34 0;
#X connect 13 0 27 0;
#X connect 14 0 17 2;
#X connect 16 0 17 1;
#X connect 17 0 26 0;
#X connect 18 0 41 1;
#X connect 21 0 20 1;
#X connect 22 0 20 0;
#X connect 23 0 20 0;
#X connect 24 0 20 0;
#X connect 25 0 41 0;
#X connect 26 0 25 0;
#X connect 27 0 31 0;
#X connect 27 1 28 0;
#X connect 28 0 29 0;
#X connect 29 0 30 0;
#X connect 29 0 28 1;
#X connect 30 0 31 1;
#X connect 31 0 32 0;
#X connect 32 0 13 0;
#X connect 33 0 32 1;
#X connect 33 0 32 2;
#X connect 33 0 32 3;
#X connect 34 0 32 0;
#X connect 35 0 34 1;
#X connect 36 0 34 2;
#X connect 37 0 34 3;
#X connect 39 0 32 1;
#X connect 40 0 8 0;
#X connect 41 0 20 0;
#X connect 43 0 53 0;
#X connect 44 0 46 0;
#X connect 45 0 44 1;
#X connect 46 0 50 0;
#X connect 46 1 47 0;
#X connect 47 0 48 0;
#X connect 48 0 49 0;
#X connect 48 0 47 1;
#X connect 49 0 50 1;
#X connect 50 0 51 0;
#X connect 51 0 44 0;
#X connect 52 0 51 1;
#X connect 52 0 51 2;
#X connect 52 0 51 3;
#X connect 53 0 51 0;
#X connect 54 0 53 1;
#X connect 55 0 53 2;
#X connect 56 0 53 3;
#X connect 57 0 51 2;
