#N canvas 571 76 720 424 10;
#X obj 35 21 inlet~ audio1;
#X floatatom 76 243 10 0 0 0 - - -, f 10;
#X obj 75 304 osc~;
#X obj 76 376 outlet~;
#N canvas 470 191 757 674 user-parameters 0;
#X obj 45 167 vradio 15 1 1 4 empty empty empty 0 -8 0 10 -262144 -260097
-1 3;
#N canvas 0 23 167 265 overlap 0;
#X obj 29 35 inlet;
#X obj 29 195 outlet;
#X obj 29 130 pow;
#X obj 29 70 t b f;
#X msg 29 102 2;
#X msg 29 162 overlap \$1;
#X connect 0 0 3 0;
#X connect 2 0 5 0;
#X connect 3 0 4 0;
#X connect 3 1 2 1;
#X connect 4 0 2 0;
#X connect 5 0 1 0;
#X restore 45 238 pd overlap;
#N canvas 777 314 284 292 framesize 0;
#X obj 29 14 inlet;
#X obj 29 242 outlet;
#X obj 29 119 pow;
#X obj 29 64 t b f;
#X msg 29 91 2;
#X msg 29 198 framesize \$1;
#X obj 43 173 s \$0-framesize;
#X floatatom 53 144 5 0 0 0 - - -, f 5;
#X obj 159 163 samplerate~;
#X obj 159 136 t b f;
#X obj 159 191 /;
#X obj 159 245 outlet;
#X obj 159 219 * 1.2;
#X obj 29 41 + 7;
#X connect 0 0 13 0;
#X connect 2 0 5 0;
#X connect 2 0 6 0;
#X connect 2 0 7 0;
#X connect 2 0 9 0;
#X connect 3 0 4 0;
#X connect 3 1 2 1;
#X connect 4 0 2 0;
#X connect 5 0 1 0;
#X connect 8 0 10 0;
#X connect 9 0 8 0;
#X connect 9 1 10 1;
#X connect 10 0 12 0;
#X connect 12 0 11 0;
#X connect 13 0 3 0;
#X restore 29 88 pd framesize;
#X obj 29 4 vradio 15 1 1 5 empty empty empty 0 -8 0 10 -262144 -260097
-1 2;
#X text 50 19 256;
#X text 50 35 512;
#X text 49 65 2048;
#X text 67 182 2;
#X text 67 214 8;
#X text 67 199 4;
#X obj 29 607 outlet;
#X floatatom 98 118 5 0 0 0 - - -, f 5;
#X text 49 50 1024 (default);
#X text 67 166 1 (default);
#X text 292 84 Overlapping analysis frames can be used for a finer
rate of pitch messages. This may be useful in the case of longer analysis
frames. Note that overlap multiplies the object's CPU load.;
#X msg 124 423 bias \$1;
#X obj 127 397 hsl 100 15 0 1 0 0 empty empty empty -2 -8 0 10 -262144
-260097 -1 9000 0;
#X floatatom 182 423 5 0 0 0 - - -, f 5;
#X text 287 382 Bias (range 0 - 1) is used to favour the first peaks
found in the SNAC function. If bias is set to a higher level \, you
are more likely to experience upper octave jumps. If bias is set to
a low level \, low octave jumps are more likely to happen. Set bias
according to your input material. For example \, for a sound type with
weak fundamental \, bias is better not set too high. Default is 0.2.
;
#X obj 126 476 hsl 100 15 0 1 0 0 empty empty empty -2 -8 0 10 -262144
-260097 -1 9200 0;
#X floatatom 201 506 5 0 0 0 - - -, f 5;
#X msg 123 506 fidelity \$1;
#X text 287 489 Fidelity (range 0 - 1 ) determines the fidelity threshold
required for new pitch information to get through. Fidelity is an indication
of how periodic a sound is (as opposed to noisy \, not periodic). Default
is 0.95.;
#X text 292 -9 Analysis framesize determines the lowest pitch which
can be detected \, corresponding to a period ~1.2 times the framesize.
Framesize also determines latency of the pitch info. Note that reported
pitch is the average pitch of an analysis frame. Framesize is always
a power of two \, because FFT is used for efficiency.;
#X text 93 138 lowest detectable pitch (Hz);
#X obj 127 562 hsl 100 15 0 2000 0 0 empty empty empty -2 -8 0 10 -262144
-260097 -1 9900 0;
#X floatatom 199 591 5 0 0 0 - - -, f 5;
#X msg 124 590 maxfreq \$1;
#X text 288 560 Maxfreq is the maximum frequency which will possibly
be reported by [helmholtz~]. Default is 2000 Set it lower if you experience
harmonic interference components such as from cellphones.;
#X text 50 2 128;
#X text 293 188 1 - analysis frame size (128 \, 256 \, 512 \, 1024
or 2048);
#X text 293 210 2 - overlap (1 \, 2 \, 4 or 8);
#X text 292 161 Optional initialisation arguments are:;
#X obj 142 119 outlet;
#X obj 61 269 loadbang;
#X obj 127 318 hsl 100 15 0 100 0 0 empty empty empty -2 -8 0 10 -262144
-260097 -1 3700 0;
#X floatatom 182 344 5 0 0 0 - - -, f 5;
#X msg 124 344 sens \$1;
#X text 288 305 Sens (sensitivity) determines a minimum sound level
where [helmholtz~] is sensitive for pitch. If your input sound has
a lot of artifacts (hum \, interference \, colored noise) \, set sens
to a higher dB level. Default is 50 dB (pd deciBels).;
#X text 290 261 ++++++++++++++++++++++++++++++++++++++++++++++++++++++++++
;
#X text 288 285 //Gate;
#X text 288 365 //detection d'harmonique;
#X text 285 475 //Gate de pitch;
#X text 289 546 //Gate de bruit blanc;
#X msg 124 293 73;
#X msg 124 372 0.8;
#X msg 123 452 0.808;
#X msg 124 540 1292;
#X connect 0 0 1 0;
#X connect 1 0 10 0;
#X connect 2 0 10 0;
#X connect 2 1 11 0;
#X connect 2 1 33 0;
#X connect 3 0 2 0;
#X connect 15 0 10 0;
#X connect 16 0 15 0;
#X connect 16 0 17 0;
#X connect 19 0 21 0;
#X connect 19 0 20 0;
#X connect 21 0 10 0;
#X connect 25 0 27 0;
#X connect 25 0 26 0;
#X connect 27 0 10 0;
#X connect 34 0 45 0;
#X connect 34 0 46 0;
#X connect 34 0 47 0;
#X connect 34 0 44 0;
#X connect 35 0 37 0;
#X connect 35 0 36 0;
#X connect 37 0 10 0;
#X connect 44 0 35 0;
#X connect 45 0 16 0;
#X connect 46 0 19 0;
#X connect 47 0 25 0;
#X restore 65 142 pd user-parameters;
#X floatatom 178 168 5 0 0 0 - - -, f 5;
#N canvas 513 73 333 195 filter 0;
#X obj 40 25 inlet~;
#X obj 40 47 hip~ 160;
#X text 116 51 Filtre pour le hum du DC;
#X obj 123 27 inlet;
#X text 175 27 freq du filtre;
#X obj 40 92 lp6_cheb~ 3000;
#X obj 40 144 outlet~;
#X connect 0 0 1 0;
#X connect 1 0 5 0;
#X connect 3 0 5 1;
#X connect 5 0 6 0;
#X restore 42 107 pd filter;
#X floatatom 111 87 5 0 0 0 - - -, f 5;
#X text 151 77 lp freq;
#X obj 42 190 helmholtz~ 1024 8;
#X text 223 167 "fidelité";
#X obj 287 290 envrms~;
#X obj 287 333 line~;
#X obj 287 242 +~;
#X obj 287 268 delay~ 2048 1024;
#X msg 287 312 \$1 5;
#X obj 284 210 inlet~ audio2;
#X obj 418 216 r \$0-framesize;
#X floatatom 418 236 5 0 0 0 - - -, f 5;
#X obj 75 326 *~;
#X obj 75 347 lop~ 5000;
#X msg 111 66 1000;
#X obj 111 46 loadbang;
#X obj 76 284 line~;
#X text 359 292 Helmholtz utilise ce délai du signal doublé dans
son help \, bien que je n'ai pas encore compris ce que cela pouvait
changer (filtrage en peigne??) il me semble arriver à de meilleurs
résultats en comme ça.;
#X text 166 110 Paramètres par défault changés pour arriver à un
meilleur résultat.;
#X text 101 218 freq en Hz;
#X text 131 284 L'osc résultante;
#X obj 157 242 outlet pitch;
#X msg 76 262 \$1 5;
#X connect 0 0 6 0;
#X connect 1 0 29 0;
#X connect 2 0 19 0;
#X connect 4 0 9 0;
#X connect 6 0 9 0;
#X connect 7 0 6 1;
#X connect 9 1 1 0;
#X connect 9 1 28 0;
#X connect 9 2 5 0;
#X connect 11 0 15 0;
#X connect 12 0 19 1;
#X connect 13 0 14 0;
#X connect 14 0 11 0;
#X connect 15 0 12 0;
#X connect 16 0 13 0;
#X connect 17 0 18 0;
#X connect 18 0 14 1;
#X connect 19 0 20 0;
#X connect 20 0 3 0;
#X connect 21 0 7 0;
#X connect 22 0 21 0;
#X connect 23 0 2 0;
#X connect 29 0 23 0;
