#N canvas 2 22 1224 738 10;
#X obj 26 180 openpanel;
#X obj 26 161 bng 15 250 50 0 empty empty empty 17 7 0 10 -262144 -1
-1;
#X obj 26 224 soundfiler;
#X obj 26 246 s samplesize;
#N canvas 0 22 450 278 (subpatch) 0;
#X array LoopR 1.12896e+07 float 2;
#X coords 0 1 1.12896e+07 -1 200 140 1 0 0;
#X restore 962 265 graph;
#X obj 757 91 r samplesize;
#X floatatom 757 113 30 0 0 0 - - -, f 30;
#X obj 757 219 phasor~;
#X obj 757 154 samplerate~;
#X obj 757 132 t b f;
#X obj 830 197 - 3;
#X obj 757 241 *~;
#X obj 757 263 +~ 1;
#X obj 757 176 /;
#X floatatom 757 198 5 0 0 0 - - -, f 5;
#X obj 835 330 tabread4~ LoopR;
#X obj 712 329 tabread4~ LoopL;
#N canvas 0 22 450 278 (subpatch) 0;
#X array LoopL 1.12896e+07 float 2;
#X coords 0 1 1.12896e+07 -1 200 140 1 0 0;
#X restore 963 99 graph;
#X obj 777 453 outlet~ L;
#X obj 877 452 outlet~ R;
#X obj 26 111 inlet load;
#X text 48 160 Open a soundfile;
#X text 871 296 STOP;
#X msg 845 295 0;
#X obj 836 352 *~;
#X obj 712 361 *~;
#X msg 828 272 1;
#X obj 845 234 loadbang;
#X obj 546 529 spectre~;
#X obj 879 526 spectre~;
#X obj 684 460 s~ loop;
#X text 72 28 Loop_Player. For file longer than 6 min \, change the
maxsize (nb of samples of the audio file) with this formula : number
of seconds * samplerate.;
#X msg 26 202 read -maxsize 1.8522e+07 -resize \$1 LoopL LoopR, f
91;
#X connect 0 0 32 0;
#X connect 1 0 0 0;
#X connect 2 0 3 0;
#X connect 5 0 6 0;
#X connect 6 0 9 0;
#X connect 7 0 11 0;
#X connect 8 0 13 0;
#X connect 9 0 8 0;
#X connect 9 1 10 0;
#X connect 9 1 13 1;
#X connect 10 0 11 1;
#X connect 11 0 12 0;
#X connect 12 0 15 0;
#X connect 12 0 16 0;
#X connect 13 0 14 0;
#X connect 14 0 7 0;
#X connect 15 0 24 0;
#X connect 16 0 25 0;
#X connect 20 0 1 0;
#X connect 23 0 24 1;
#X connect 23 0 25 1;
#X connect 24 0 19 0;
#X connect 24 0 29 0;
#X connect 24 0 30 0;
#X connect 25 0 18 0;
#X connect 25 0 28 0;
#X connect 25 0 30 0;
#X connect 26 0 24 1;
#X connect 26 0 25 1;
#X connect 27 0 26 0;
#X connect 32 0 2 0;
