#N canvas 305 113 752 569 10;
#X obj 26 180 openpanel;
#X obj 26 161 bng 15 250 50 0 empty empty empty 17 7 0 10 -262144 -1
-1;
#X obj 26 224 soundfiler;
#X obj 26 246 s samplesize;
#N canvas 0 22 450 278 (subpatch) 0;
#X array LoopR 4e+06 float 2;
#X coords 0 1 4e+06 -1 200 140 1 0 0;
#X restore 514 291 graph;
#X obj 263 113 r samplesize;
#X floatatom 263 135 30 0 0 0 - - -, f 30;
#X obj 263 241 phasor~;
#X obj 263 176 samplerate~;
#X obj 263 154 t b f;
#X obj 336 219 - 3;
#X obj 263 263 *~;
#X obj 263 285 +~ 1;
#X obj 263 198 /;
#X floatatom 263 220 5 0 0 0 - - -, f 5;
#X obj 197 356 tabread4~ LoopR;
#X obj 74 355 tabread4~ LoopL;
#N canvas 0 22 450 278 (subpatch) 0;
#X array LoopL 4e+06 float 2;
#X coords 0 1 4e+06 -1 200 140 1 0 0;
#X restore 515 125 graph;
#X obj 119 439 outlet~ L;
#X obj 219 438 outlet~ R;
#X msg 26 202 read -resize \$1 LoopL LoopR;
#X obj 26 111 inlet load;
#X text 48 160 Open a soundfile;
#X text 73 41 Pour l'instant \, mon but est de tenter de reproduire
le plus possible la mélodie du piano dans le fichier "Olafur_Fryda)
\, donc c'est généralement avec lui que je travail le plus souvent
;
#X text 388 393 STOP;
#X msg 357 391 0;
#X obj 198 378 *~;
#X obj 74 377 *~;
#X msg 340 368 1;
#X obj 357 330 loadbang;
#X connect 0 0 20 0;
#X connect 1 0 0 0;
#X connect 2 0 3 0;
#X connect 5 0 6 0;
#X connect 6 0 9 0;
#X connect 7 0 11 0;
#X connect 8 0 13 0;
#X connect 9 0 8 0;
#X connect 9 1 10 0;
#X connect 9 1 13 1;
#X connect 10 0 11 1;
#X connect 11 0 12 0;
#X connect 12 0 15 0;
#X connect 12 0 16 0;
#X connect 13 0 14 0;
#X connect 14 0 7 0;
#X connect 15 0 26 0;
#X connect 16 0 27 0;
#X connect 20 0 2 0;
#X connect 21 0 1 0;
#X connect 25 0 26 1;
#X connect 25 0 27 1;
#X connect 26 0 19 0;
#X connect 27 0 18 0;
#X connect 28 0 26 1;
#X connect 28 0 27 1;
#X connect 29 0 28 0;
