#N canvas 0 22 1920 1036 10;
#X obj 460 731 Loop_player;
#X obj 657 812 line~;
#X msg 657 792 \$1 20;
#X obj 661 752 hsl 128 15 0 1 0 0 empty empty empty -2 -8 0 10 -262144
-1 -1 0 1;
#X floatatom 657 775 5 0 0 0 - - -, f 5;
#X obj 502 840 *~;
#X obj 544 839 *~;
#X obj 511 866 dac~;
#X obj 80 427 GEM_FUN;
#X obj 623 713 Live_input;
#X obj 34 26 GEM_win;
#N canvas 277 126 680 490 audio_detection 0;
#X obj 112 98 Helmholtz_1;
#X obj 58 160 transients_detector;
#X obj 58 139 suivi_amp;
#X obj 57 41 noise_gate;
#X text 185 93 Pitch detection \, left outlet is the results of the
analyse with a sinewave \, right inlet is the pitch data in Hz;
#X obj 57 65 r~ no_noise;
#X text 124 42 receive the audio source and clean the signal from the
noise;
#X text 187 138 cleaned envelope follower from the audio source \,
sent into a transient detector;
#X connect 2 0 1 0;
#X connect 5 0 0 0;
#X connect 5 0 0 1;
#X restore 48 397 pd audio_detection;
#X obj 213 32 color_randomness;
#X obj 215 375 Back_control;
#X obj 67 466 simple_color;
#X obj 1113 158 Feedbacker;
#X obj 441 12 audio_detection;
#X text 694 708 *Tentative d'amener du live input grâce à JACK \,
mais j'ai laisser de côté ce problème là pour l'instant...;
#X obj 1117 271 feedbacker;
#X obj 741 132 square_mania;
#X text 692 776 *Master volume pour entendre la tune;
#X obj 466 137 square_mania;
#X connect 0 0 5 0;
#X connect 0 1 6 0;
#X connect 1 0 6 1;
#X connect 1 0 5 1;
#X connect 2 0 1 0;
#X connect 3 0 4 0;
#X connect 4 0 2 0;
#X connect 5 0 7 0;
#X connect 6 0 7 1;
#X connect 12 0 13 0;
