#N canvas 237 22 1021 643 10;
#X obj 373 135 Loop_player;
#X obj 540 247 line~;
#X msg 540 227 \$1 20;
#X obj 543 188 hsl 128 15 0 1 0 0 empty empty empty -2 -8 0 10 -262144
-1 -1 0 1;
#X floatatom 540 210 5 0 0 0 - - -, f 5;
#X obj 384 267 *~;
#X obj 426 266 *~;
#X obj 393 293 dac~;
#X obj 403 207 Helmholtz_1;
#X obj 283 238 GEM_FUN;
#X obj 455 131 Live_input;
#X obj 46 166 GEM_win;
#X obj 352 331 transients_detector;
#X connect 0 0 8 0;
#X connect 0 0 5 0;
#X connect 0 0 8 1;
#X connect 0 1 8 0;
#X connect 0 1 8 1;
#X connect 1 0 6 1;
#X connect 1 0 5 1;
#X connect 2 0 1 0;
#X connect 3 0 4 0;
#X connect 4 0 2 0;
#X connect 5 0 7 0;
#X connect 6 0 7 1;
#X connect 8 1 9 0;
#X connect 10 0 8 0;
#X connect 10 0 5 0;
#X connect 10 1 8 1;
#X connect 10 1 6 0;
