#N canvas 880 233 360 463 10;
#X obj 155 120 vsl 15 128 0 1 0 0 empty empty empty 0 -9 0 10 -203904
-1 -1 0 1;
#X obj 110 120 vsl 15 128 0 1 0 0 empty empty empty 0 -9 0 10 -261234
-1 -1 0 1;
#X obj 133 120 vsl 15 128 0 1 0 0 empty empty empty 0 -9 0 10 -204786
-1 -1 0 1;
#X text 106 251 Send colors;
#X text 121 263 values;
#X obj 97 337 pack f f f;
#X obj 97 358 outlet color;
#X obj 107 321 t b f;
#X obj 142 321 t b f;
#X connect 0 0 8 0;
#X connect 1 0 5 0;
#X connect 2 0 7 0;
#X connect 5 0 6 0;
#X connect 7 0 5 0;
#X connect 7 1 5 1;
#X connect 8 0 5 0;
#X connect 8 1 5 2;
#X coords 0 -1 1 1 80 180 1 100 100;
