#N canvas 104 48 829 423 10;
#X obj 360 191 rotateXYZ;
#X obj 362 212 translateXYZ;
#X obj 360 233 colorRGB;
#X obj 360 254 alpha;
#X obj 360 275 cube;
#X obj 359 39 gemhead;
#X obj 359 60 translateXYZ;
#X obj 386 110 f;
#X obj 386 129 + 1;
#X msg 423 93 bang;
#X obj 385 91 bng 15 250 50 0 empty empty empty 17 7 0 10 -262144 -1
-1;
#X obj 386 149 f;
#X floatatom 386 168 5 0 0 0 - - -, f 5;
#X obj 261 41 inlet attack;
#X obj 459 36 inlet pitch;
#X obj 363 316 outlet feedback;
#X obj 586 291 spigot;
#X obj 622 331 spigot;
#X obj 599 311 spigot;
#X obj 577 270 spigot;
#X obj 710 278 sel 0 1 2 3;
#X obj 113 140 vradio 15 1 0 7 empty empty empty 0 -8 0 10 -262144
-1 -1 0;
#X text 130 154 rectangle;
#X text 131 137 square;
#X text 132 169 disk;
#X text 130 185 PrimTri;
#X text 130 200 cube;
#X text 130 215 sphere;
#X text 130 230 cylinder;
#X obj 113 252 s \$0-formselection;
#X text 107 105 a;
#X text 172 102 p;
#X text 282 105 e;
#X text 162 120 square_mania;
#X obj 569 47 inlet enveloppe;
#X obj 569 68 print env;
#X obj 555 185 inlet feedback;
#X text 228 106 f;
#X obj 603 244 print spigot;
#X obj 709 198 print sel;
#X connect 0 0 1 0;
#X connect 1 0 2 0;
#X connect 2 0 3 0;
#X connect 3 0 4 0;
#X connect 4 0 15 0;
#X connect 5 0 6 0;
#X connect 6 0 0 0;
#X connect 7 0 8 0;
#X connect 8 0 11 0;
#X connect 9 0 10 0;
#X connect 10 0 7 0;
#X connect 11 0 12 0;
#X connect 11 0 7 1;
#X connect 12 0 0 3;
#X connect 12 0 0 2;
#X connect 14 0 9 0;
#X connect 16 0 0 1;
#X connect 17 0 0 3;
#X connect 18 0 0 2;
#X connect 19 0 0 0;
#X connect 20 0 19 1;
#X connect 20 1 16 1;
#X connect 20 2 18 1;
#X connect 20 3 17 1;
#X connect 21 0 29 0;
#X connect 34 0 35 0;
#X coords 0 -1 1 1 200 200 2 100 100;
