#N canvas 236 229 1347 664 10;
#X obj 477 337 rotateXYZ;
#X obj 479 358 translateXYZ;
#X obj 477 379 colorRGB;
#X obj 477 400 alpha;
#X obj 477 421 cube;
#X obj 476 185 gemhead;
#X obj 476 206 translateXYZ;
#X obj 503 256 f;
#X obj 503 275 + 1;
#X msg 540 239 bang;
#X obj 502 237 bng 15 250 50 0 empty empty empty 17 7 0 10 -262144
-1 -1;
#X obj 503 295 f;
#X floatatom 503 314 5 0 0 0 - - -, f 5;
#X obj 368 158 inlet attack;
#X obj 576 182 inlet pitch;
#X obj 480 462 outlet feedback;
#X obj 703 437 spigot;
#X obj 739 477 spigot;
#X obj 716 457 spigot;
#X obj 694 416 spigot;
#X obj 827 424 sel 0 1 2 3;
#X obj 113 140 vradio 15 1 0 7 empty empty empty 0 -8 0 10 -204800
-1 -1 0;
#X text 130 154 rectangle;
#X text 131 137 square;
#X text 132 169 disk;
#X text 130 185 PrimTri;
#X text 130 200 cube;
#X text 130 215 sphere;
#X text 130 230 cylinder;
#X obj 113 252 s \$0-formselection;
#X text 107 105 a;
#X text 172 102 p;
#X text 282 105 e;
#X text 162 120 square_mania;
#X obj 686 193 inlet enveloppe;
#X obj 672 331 inlet feedback;
#X text 228 106 f;
#X obj 767 301 print spigot;
#X obj 826 344 print sel;
#X floatatom 851 480 5 0 0 0 - - -, f 5;
#X floatatom 842 463 5 0 0 0 - - -, f 5;
#X floatatom 827 445 5 0 0 0 - - -, f 5;
#X obj 784 425 bng 15 250 50 0 empty empty empty 17 7 0 10 -262144
-1 -1;
#X text 826 366 *Le plan est de pouvoir changer le sens(XYZ) du feedback
(en le passant dans rotate) \, mais je n'ai pas encore trouver comment
faire passer l'info en temps réel avec des radios et spigot;
#X obj 114 272 vradio 15 1 0 3 empty empty empty 0 -8 0 10 -204800
-1 -1 2;
#X text 133 271 full;
#X text 134 287 line;
#X text 132 304 point;
#X obj 114 339 s \$0-formstyle;
#N canvas 676 399 209 202 \$0-formstyle 0;
#X obj 43 31 r \$0-formstyle;
#X obj 43 52 sel 0 1 2;
#X msg 43 72 draw default;
#X msg 51 90 draw line;
#X msg 60 108 draw point;
#X obj 43 134 s \$0-formstylego;
#X connect 0 0 1 0;
#X connect 1 0 2 0;
#X connect 1 1 3 0;
#X connect 1 2 4 0;
#X connect 2 0 5 0;
#X connect 3 0 5 0;
#X connect 4 0 5 0;
#X restore 506 629 pd \$0-formstyle;
#X obj 361 384 r \$0-formstylego;
#X floatatom 368 241 5 0 0 0 - - -, f 5;
#X obj 368 199 f;
#X obj 368 179 bng 15 250 50 0 empty empty empty 17 7 0 10 -262144
-1 -1;
#X obj 368 261 f;
#X obj 597 409 loadbang;
#X obj 686 214 * 0.001;
#X floatatom 686 235 5 0 0 0 - - -, f 5;
#X obj 368 220 + 1;
#X floatatom 368 302 5 0 0 0 - - -, f 5;
#X obj 368 322 * 0.01;
#X floatatom 368 343 5 0 0 0 - - -, f 5;
#X obj 368 281 mod 100;
#X text 492 24 *Un des "modules" de GEM \, reste beaucoup à faire
dedans \, dont trouver un processus pour réussir à changer la forme
grâce aux "radios".;
#X connect 0 0 1 0;
#X connect 1 0 2 0;
#X connect 2 0 3 0;
#X connect 3 0 4 0;
#X connect 4 0 15 0;
#X connect 5 0 6 0;
#X connect 6 0 0 0;
#X connect 7 0 8 0;
#X connect 8 0 11 0;
#X connect 9 0 10 0;
#X connect 10 0 7 0;
#X connect 11 0 12 0;
#X connect 11 0 7 1;
#X connect 12 0 0 3;
#X connect 12 0 0 2;
#X connect 13 0 53 0;
#X connect 14 0 9 0;
#X connect 20 0 41 0;
#X connect 20 1 40 0;
#X connect 20 2 39 0;
#X connect 21 0 29 0;
#X connect 34 0 56 0;
#X connect 35 0 0 0;
#X connect 39 0 18 1;
#X connect 40 0 16 1;
#X connect 41 0 19 1;
#X connect 41 0 42 0;
#X connect 44 0 48 0;
#X connect 50 0 4 0;
#X connect 51 0 54 0;
#X connect 52 0 58 0;
#X connect 53 0 52 0;
#X connect 54 0 52 1;
#X connect 54 0 62 0;
#X connect 56 0 57 0;
#X connect 57 0 1 3;
#X connect 58 0 51 0;
#X connect 59 0 60 0;
#X connect 60 0 61 0;
#X connect 61 0 1 1;
#X connect 62 0 59 0;
#X coords 0 -1 1 1 200 225 2 100 100;
