#N canvas 431 297 933 649 10;
#X obj 477 337 rotateXYZ;
#X obj 479 358 translateXYZ;
#X obj 477 379 colorRGB;
#X obj 477 400 alpha;
#X obj 477 421 cube;
#X obj 476 185 gemhead;
#X obj 476 206 translateXYZ;
#X obj 503 256 f;
#X obj 503 275 + 1;
#X msg 540 239 bang;
#X obj 502 237 bng 15 250 50 0 empty empty empty 17 7 0 10 -262144
-1 -1;
#X obj 503 295 f;
#X floatatom 503 314 5 0 0 0 - - -, f 5;
#X obj 311 21 inlet attack;
#X obj 576 182 inlet pitch;
#X obj 480 462 outlet feedback;
#X text 107 105 a;
#X text 172 102 p;
#X text 282 105 e;
#X text 162 120 square_mania;
#X obj 692 113 inlet enveloppe;
#X obj 672 331 inlet feedback;
#X text 228 106 f;
#X obj 111 142 vradio 15 1 0 3 empty empty empty 0 -8 0 10 -204800
-1 -1 0;
#X text 130 158 full;
#X text 130 142 line;
#X text 129 174 point;
#X obj 167 249 s \$0-formstyle;
#X obj 361 384 r \$0-formstylego;
#X floatatom 311 104 5 0 0 0 - - -, f 5;
#X obj 311 62 f;
#X obj 311 42 bng 15 250 50 0 empty empty empty 17 7 0 10 -262144 -1
-1;
#X obj 311 124 f;
#X floatatom 686 235 5 0 0 0 - - -, f 5;
#X obj 311 83 + 1;
#X floatatom 311 165 5 0 0 0 - - -, f 5;
#X obj 311 185 * 0.01;
#X floatatom 311 206 5 0 0 0 - - -, f 5;
#X obj 311 144 mod 100;
#N canvas 1248 554 201 215 \$0-formstyle 0;
#X obj 43 31 r \$0-formstyle;
#X obj 43 52 sel 0 1 2;
#X msg 54 89 draw default;
#X msg 43 71 draw line;
#X msg 60 108 draw point;
#X obj 43 134 s \$0-formstylego;
#X obj 136 31 loadbang;
#X obj 136 51 delay 15;
#X connect 0 0 1 0;
#X connect 1 0 3 0;
#X connect 1 1 2 0;
#X connect 1 2 4 0;
#X connect 2 0 5 0;
#X connect 3 0 5 0;
#X connect 4 0 5 0;
#X connect 6 0 7 0;
#X connect 7 0 3 0;
#X restore 403 555 pd \$0-formstyle;
#X obj 692 156 * 2;
#X obj 686 214 * 0.009;
#X floatatom 402 104 5 0 0 0 - - -, f 5;
#X obj 402 62 f;
#X obj 402 42 bng 15 250 50 0 empty empty empty 17 7 0 10 -262144 -1
-1;
#X obj 402 124 f;
#X floatatom 402 165 5 0 0 0 - - -, f 5;
#X floatatom 402 206 5 0 0 0 - - -, f 5;
#X obj 402 83 - 1;
#X obj 402 144 mod -100;
#X obj 402 185 * 0.01;
#X connect 0 0 1 0;
#X connect 1 0 2 0;
#X connect 2 0 3 0;
#X connect 3 0 4 0;
#X connect 4 0 15 0;
#X connect 5 0 6 0;
#X connect 6 0 0 0;
#X connect 7 0 8 0;
#X connect 8 0 11 0;
#X connect 9 0 10 0;
#X connect 10 0 7 0;
#X connect 11 0 12 0;
#X connect 11 0 7 1;
#X connect 12 0 0 3;
#X connect 12 0 0 2;
#X connect 13 0 31 0;
#X connect 13 0 44 0;
#X connect 14 0 9 0;
#X connect 20 0 40 0;
#X connect 21 0 0 0;
#X connect 23 0 27 0;
#X connect 28 0 4 0;
#X connect 29 0 32 0;
#X connect 30 0 34 0;
#X connect 31 0 30 0;
#X connect 32 0 30 1;
#X connect 32 0 38 0;
#X connect 33 0 1 3;
#X connect 34 0 29 0;
#X connect 35 0 36 0;
#X connect 36 0 37 0;
#X connect 37 0 1 1;
#X connect 38 0 35 0;
#X connect 40 0 41 0;
#X connect 41 0 33 0;
#X connect 42 0 45 0;
#X connect 43 0 48 0;
#X connect 44 0 43 0;
#X connect 45 0 43 1;
#X connect 45 0 49 0;
#X connect 46 0 50 0;
#X connect 47 0 6 1;
#X connect 48 0 42 0;
#X connect 49 0 46 0;
#X connect 50 0 47 0;
#X coords 0 -1 1 1 200 125 2 100 100;
