#N canvas 780 414 901 427 10;
#X obj 19 48 f;
#X obj 119 91 pipe 5;
#X floatatom 19 69 5 0 0 0 - - -, f 5;
#X obj 161 32 hsl 128 15 0 20 0 0 empty empty empty -2 -8 0 10 -262144
-1 -1 500 1;
#X text 157 18 Délai du pipe;
#X floatatom 158 52 5 0 0 0 - - -, f 5;
#X obj 222 77 hsl 128 15 0 30 0 0 empty empty empty -2 -8 0 10 -262144
-1 -1 423 1;
#X floatatom 219 97 5 0 0 0 - - -, f 5;
#X text 216 61 Threshold_dB;
#X obj 82 154 hsl 128 15 0 1000 0 0 empty empty empty -2 -8 0 10 -262144
-1 -1 571 1;
#X floatatom 79 174 5 0 0 0 - - -, f 5;
#X text 76 138 delay_before_next_trigger;
#N canvas 561 351 450 300 gate 0;
#X obj 52 37 loadbang;
#X obj 168 88 inlet;
#X obj 168 149 gate;
#X obj 168 170 outlet;
#X msg 168 128 1;
#X obj 206 128 inlet;
#X floatatom 168 109 5 0 0 0 - - -, f 5;
#X connect 0 0 4 0;
#X connect 1 0 6 0;
#X connect 2 0 3 0;
#X connect 4 0 2 0;
#X connect 5 0 2 1;
#X connect 6 0 4 0;
#X restore 21 215 pd gate;
#X obj 22 196 delay 100;
#X obj 22 111 expr if ($f1 > ($f2+$f3) \, 1 \, 0);
#X floatatom 22 132 5 0 0 0 - - -, f 5;
#X obj 22 149 sel 1;
#X obj 22 168 bng 15 250 50 0 empty empty empty 17 7 0 10 -262144 -1
-1;
#X obj 21 233 bng 15 250 50 0 empty empty empty 17 7 0 10 -262144 -1
-1;
#X obj 21 252 s attack;
#X text 138 5 "Longueur du transient";
#X obj 19 27 inlet env_f;
#X obj 382 15 loadbang;
#X msg 382 36 5 1.8 55;
#X obj 382 167 unpack f f f;
#X obj 382 186 s \$0-del;
#X obj 415 204 s \$0-thres;
#X obj 384 223 s \$0-gate;
#X text 442 -1 Certain presets for various;
#X text 443 16 style of audio;
#X obj 292 16 r \$0-del;
#X obj 302 61 r \$0-thres;
#X obj 235 138 r \$0-gate;
#X msg 390 55 0.787 1 45;
#X text 439 36 Rock \, or songs with small dynamics and fast tempo
;
#X text 460 56 No drums or big dynamics and slow tempo (orchestral
\, piano);
#X connect 0 0 1 0;
#X connect 0 0 2 0;
#X connect 1 0 14 1;
#X connect 2 0 14 0;
#X connect 3 0 5 0;
#X connect 5 0 1 1;
#X connect 6 0 7 0;
#X connect 7 0 14 2;
#X connect 9 0 10 0;
#X connect 10 0 13 1;
#X connect 12 0 18 0;
#X connect 13 0 12 0;
#X connect 14 0 15 0;
#X connect 15 0 16 0;
#X connect 16 0 17 0;
#X connect 17 0 13 0;
#X connect 17 0 12 1;
#X connect 18 0 19 0;
#X connect 21 0 0 0;
#X connect 22 0 23 0;
#X connect 23 0 24 0;
#X connect 24 0 25 0;
#X connect 24 1 26 0;
#X connect 24 2 27 0;
#X connect 30 0 3 0;
#X connect 31 0 6 0;
#X connect 32 0 9 0;
#X connect 33 0 24 0;
